<svg xmlns="http://www.w3.org/2000/svg" viewBox="0 0 1555 1599" role="img" aria-label="CVOYA"><path fill="#0b1e3f" d="M689.366,1234.965c2.366,2.469 -158.567,-59.583 -251.47,-226.624c-64.982,-116.837 -90.806,-260.095 -55.742,-391.9c48.573,-182.586 135.299,-295.176 236.345,-371.665c309.189,-234.047 621.124,-42.208 642.742,-75.012c22.489,-34.127 -132.776,-112.264 -335.349,-156.25c-121.349,-26.349 -275.925,-11.708 -391.387,22.667c-112.743,33.565 -235.932,117.487 -301.389,183.583c-114.432,115.55 -201.562,282.292 -225,428.125c-23.438,145.833 3.646,334.896 84.375,446.875c72.058,99.952 199.8,154.311 325,168.75c127.879,14.748 271.875,-28.551 271.875,-28.551Z"/><path fill="#0b1e3f" d="M158.116,1263.454c13.1,13.113 149.149,100.994 325,84.437c107.856,-10.155 231.771,-53.708 325,-84.437c80.662,-26.587 163.542,-78.073 234.375,-99.938c61.525,-18.992 126.237,-31.769 190.625,-31.25c64.583,0.521 143.229,12.51 196.875,34.375c48.804,19.891 124.479,88.48 125,96.813c0.521,8.333 -79.127,-38.657 -121.875,-46.813c-46.354,-8.844 -112.704,-9.825 -156.25,-6.25c-36.084,2.962 -71.502,14.025 -105.026,27.699c-39.583,16.146 -88.613,45.557 -132.474,69.176c-46.558,25.071 -98.427,50.529 -146.875,81.25c-53.733,34.072 -143.229,68.75 -218.75,81.25c-75.521,12.5 -177.577,11.902 -234.375,-6.25c-42.746,-13.661 -80.133,-28.506 -125,-50c-104.033,-49.838 -170.818,-164.644 -156.25,-150.062Z"/><path fill="#0b1e3f" d="M489.366,1522.891c7.484,-7.12 109.824,8.764 163.654,7.282c56.771,-1.562 110.124,-16.126 158.221,-35.407c74.806,-29.988 144.271,-73.958 215.625,-109.375c70.524,-35.005 157.292,-83.323 212.5,-103.125c37.583,-13.48 78.873,-17.681 118.75,-15.687c41.667,2.083 128.125,21.739 131.25,28.187c3.125,6.448 -77.083,1.645 -112.5,10.499c-35.153,8.788 -68.57,24.594 -100,42.626c-34.171,19.604 -69.444,50.823 -105.026,75c-40.625,27.604 -91.645,64.062 -138.724,90.625c-46.26,26.1 -96.875,54.688 -143.75,68.75c-44.183,13.255 -91.397,17.162 -137.5,15.625c-46.875,-1.562 -100,-12.5 -143.75,-25c-41.297,-11.799 -126.234,-42.88 -118.75,-50Z"/></svg>
